<?xml version="1.0" standalone="no"?>
<!DOCTYPE svg PUBLIC "-//W3C//DTD SVG 20010904//EN"
 "http://www.w3.org/TR/2001/REC-SVG-20010904/DTD/svg10.dtd">
<svg version="1.0" xmlns="http://www.w3.org/2000/svg"
 width="2000.000000pt" height="2000.000000pt" viewBox="0 0 2000.000000 2000.000000"
 preserveAspectRatio="xMidYMid meet">
<metadata>
Created by potrace 1.11, written by Peter Selinger 2001-2013
</metadata>
<g transform="translate(0.000000,2000.000000) scale(0.100000,-0.100000)"
fill="#000000" stroke="none">
<path d="M9628 19995 c-2 -1 -59 -5 -128 -9 -161 -8 -270 -14 -345 -21 -33 -3
-85 -8 -115 -10 -30 -3 -71 -8 -90 -10 -37 -5 -120 -14 -180 -20 -29 -3 -218
-29 -360 -50 -253 -38 -762 -150 -1105 -243 -375 -103 -912 -293 -1265 -449
-30 -13 -64 -28 -75 -33 -153 -66 -528 -250 -730 -358 -136 -73 -454 -259
-476 -278 -8 -8 -19 -14 -23 -14 -23 0 -613 -405 -780 -535 -84 -65 -383 -305
-411 -330 -16 -14 -41 -36 -55 -47 -27 -23 -159 -140 -229 -203 -204 -183
-508 -491 -736 -745 -185 -207 -503 -603 -626 -780 -13 -19 -29 -42 -36 -50
-43 -53 -329 -486 -425 -645 -169 -278 -403 -720 -526 -991 -192 -421 -360
-864 -475 -1249 -53 -177 -79 -266 -83 -280 -1 -5 -16 -64 -33 -129 -17 -66
-34 -133 -37 -149 -2 -17 -7 -33 -9 -37 -4 -6 -32 -129 -49 -210 -3 -14 -8
-38 -11 -53 -22 -106 -65 -330 -70 -367 -4 -25 -9 -54 -11 -65 -3 -11 -7 -40
-10 -65 -3 -25 -7 -52 -9 -60 -2 -8 -7 -37 -11 -65 -3 -27 -7 -57 -9 -65 -3
-18 -13 -98 -20 -160 -3 -25 -9 -79 -14 -120 -6 -41 -12 -106 -16 -145 -3 -38
-7 -92 -10 -120 -22 -247 -30 -454 -30 -840 0 -415 9 -615 40 -940 2 -22 7
-71 10 -110 4 -38 8 -77 10 -85 1 -8 6 -42 9 -75 3 -33 9 -78 13 -100 3 -22 7
-51 8 -65 1 -14 6 -44 10 -68 4 -23 8 -52 10 -65 2 -12 8 -56 15 -97 7 -41 13
-84 15 -95 2 -11 6 -33 9 -50 3 -16 10 -55 16 -85 6 -30 12 -66 15 -80 3 -14
8 -38 11 -55 12 -68 85 -388 114 -500 72 -279 101 -379 183 -625 33 -102 62
-189 63 -195 4 -15 113 -307 123 -330 5 -11 19 -46 31 -77 12 -32 26 -58 31
-58 8 0 319 125 384 154 17 8 53 21 80 30 28 9 59 20 70 25 84 37 554 199 716
245 l57 17 51 -30 c149 -88 435 -219 716 -329 263 -103 513 -188 793 -269 67
-20 121 -37 119 -39 -2 -2 -23 -6 -48 -9 -86 -10 -182 -24 -289 -40 -14 -2
-47 -7 -75 -10 -27 -4 -57 -8 -65 -10 -8 -2 -37 -7 -65 -10 -27 -3 -75 -10
-105 -15 -30 -5 -68 -12 -85 -14 -68 -11 -104 -17 -180 -31 -44 -8 -96 -17
-115 -20 -19 -3 -42 -8 -50 -10 -8 -2 -31 -7 -50 -10 -19 -3 -42 -8 -50 -10
-8 -2 -33 -6 -55 -10 -51 -7 -465 -97 -555 -119 -8 -3 -65 -16 -125 -29 -102
-24 -499 -131 -658 -179 -37 -11 -70 -24 -73 -29 -5 -9 22 -68 75 -163 10 -17
52 -94 95 -171 135 -244 261 -452 419 -690 90 -135 292 -422 306 -435 4 -3 33
-41 65 -85 107 -143 309 -390 455 -554 36 -41 71 -79 76 -85 144 -164 462
-484 665 -672 213 -195 510 -444 710 -594 18 -14 57 -43 86 -65 223 -168 500
-354 809 -543 296 -181 805 -446 1129 -587 710 -311 1416 -529 2176 -673 58
-11 125 -24 150 -27 25 -4 52 -9 61 -10 49 -9 97 -17 119 -20 14 -1 45 -6 70
-10 25 -4 56 -9 70 -10 14 -2 43 -5 65 -8 22 -4 65 -9 95 -13 30 -3 66 -8 80
-9 14 -2 59 -6 100 -10 41 -4 86 -8 100 -10 244 -35 1066 -52 1445 -32 235 13
367 23 440 32 17 2 62 7 100 10 39 4 84 9 100 11 74 9 128 16 235 30 63 9 124
17 135 19 54 7 112 16 125 20 8 2 35 7 60 10 43 6 219 39 270 50 14 3 36 7 50
10 50 9 208 45 330 75 69 16 134 32 145 34 11 2 45 11 76 20 31 9 65 19 75 21
209 47 898 282 1159 396 405 176 351 151 624 285 377 186 680 358 1036 592
668 436 1271 943 1827 1534 69 73 141 151 159 173 19 22 39 45 45 50 6 6 37
42 70 80 32 39 62 72 65 75 3 3 57 68 120 145 309 379 622 828 882 1270 7 10
22 37 35 58 26 43 45 77 87 154 l28 53 -63 57 c-142 130 -359 287 -510 370
-131 72 -232 122 -335 167 -106 45 -125 53 -225 91 -83 32 -284 95 -400 126
-117 32 -160 48 -130 49 24 1 211 98 360 188 151 91 227 147 301 222 l76 76
44 -20 c195 -88 454 -226 561 -298 31 -21 62 -38 67 -38 6 0 11 -4 11 -8 0 -5
12 -15 28 -23 15 -8 29 -17 32 -20 3 -3 27 -20 53 -38 80 -54 237 -183 327
-266 l84 -79 25 55 c83 176 146 326 233 549 99 256 245 682 283 830 2 8 22 83
45 165 38 137 131 527 144 602 4 17 17 87 30 155 24 121 40 213 51 293 3 22
10 65 15 95 5 30 12 78 15 105 4 28 8 57 10 65 2 8 7 47 11 85 4 39 8 77 9 85
1 8 5 47 9 85 4 39 9 88 12 110 2 22 7 81 10 130 3 50 7 101 9 114 19 117 27
957 12 1206 -4 66 -9 156 -12 200 -2 44 -7 105 -10 135 -3 30 -8 80 -11 110
-8 88 -24 242 -29 275 -2 17 -7 53 -10 80 -4 28 -8 61 -10 75 -2 14 -7 48 -10
75 -4 28 -13 88 -21 135 -8 47 -17 101 -20 120 -3 19 -7 42 -9 50 -3 8 -7 33
-10 55 -4 22 -10 56 -15 75 -5 19 -11 52 -14 72 -22 147 -163 713 -231 928
-101 317 -213 642 -254 735 -5 11 -15 36 -22 55 -7 19 -46 113 -86 208 -328
775 -735 1477 -1257 2167 -50 66 -93 122 -96 125 -3 3 -41 50 -85 105 -43 55
-82 102 -85 105 -3 3 -32 37 -64 75 -395 472 -938 995 -1441 1389 -82 65 -157
123 -165 129 -257 203 -743 520 -1135 742 -392 223 -962 488 -1350 630 -55 20
-109 40 -120 45 -94 43 -794 260 -917 285 -10 2 -73 17 -140 34 -136 33 -334
77 -388 86 -19 3 -78 14 -130 25 -52 10 -113 22 -135 25 -39 5 -90 14 -130 21
-11 3 -54 9 -95 15 -41 5 -86 12 -100 14 -106 15 -164 22 -240 30 -30 3 -71 8
-90 10 -19 2 -69 7 -110 10 -41 4 -86 8 -100 10 -14 2 -74 7 -135 10 -60 4
-130 9 -155 11 -50 5 -917 14 -922 9z m1801 -3657 c11 -18 27 -42 34 -53 8
-11 41 -60 72 -110 32 -49 95 -146 140 -215 46 -69 153 -233 239 -365 86 -132
161 -247 166 -255 17 -24 272 -416 405 -620 38 -58 103 -158 147 -223 43 -65
78 -120 78 -123 0 -4 14 -23 30 -44 17 -21 30 -40 30 -43 0 -2 44 -71 98 -153
54 -82 158 -242 232 -356 74 -114 137 -208 140 -208 3 0 58 78 122 173 64 94
157 231 207 302 49 72 137 200 195 285 58 85 142 207 185 270 44 63 113 165
155 225 41 61 143 209 226 330 83 121 189 276 236 345 47 69 113 166 148 215
34 50 120 174 190 278 71 103 132 190 136 192 8 5 32 -27 282 -370 80 -110
171 -234 201 -275 77 -104 131 -178 396 -540 127 -173 399 -544 604 -823 204
-280 413 -564 462 -631 50 -68 156 -213 236 -322 80 -110 267 -365 416 -569
l270 -370 -3 -690 c-2 -379 -6 -1187 -9 -1795 -3 -608 -7 -1148 -9 -1200 -7
-142 -16 -298 -21 -360 -2 -30 -7 -89 -11 -130 -11 -138 -31 -313 -44 -390 -5
-30 -11 -75 -14 -101 -9 -66 -62 -319 -76 -354 -6 -16 -11 -31 -10 -33 3 -5
-11 -67 -20 -87 -4 -11 -20 -56 -35 -100 -49 -146 -137 -298 -215 -373 -82
-79 -377 -243 -630 -350 -146 -62 -427 -167 -500 -187 -8 -3 -82 -25 -165 -51
-82 -25 -154 -47 -160 -48 -5 -2 -28 -8 -50 -14 -22 -6 -51 -13 -65 -16 -14
-3 -88 -21 -165 -41 -135 -34 -253 -62 -305 -71 -14 -2 -45 -9 -70 -14 -25 -5
-56 -12 -70 -14 -14 -2 -72 -14 -130 -26 -58 -12 -116 -24 -130 -26 -14 -2
-41 -7 -60 -10 -19 -3 -46 -8 -60 -10 -14 -2 -41 -7 -60 -10 -19 -3 -51 -8
-70 -10 -19 -2 -48 -7 -65 -11 -16 -3 -39 -7 -50 -9 -11 -1 -49 -7 -85 -12
-74 -12 -149 -22 -200 -28 -19 -2 -66 -8 -105 -13 -38 -6 -90 -13 -115 -16
-25 -3 -56 -7 -70 -10 -14 -2 -56 -7 -95 -10 -38 -4 -83 -8 -100 -10 -47 -6
-114 -13 -190 -20 -38 -4 -81 -8 -95 -10 -14 -2 -61 -7 -105 -10 -44 -3 -102
-8 -130 -10 -132 -10 -376 -28 -570 -40 -38 -3 -129 -7 -202 -11 -73 -3 -158
-7 -190 -9 -407 -27 -2000 -27 -2533 0 -47 2 -143 7 -215 10 -264 12 -312 15
-400 20 -49 4 -124 8 -165 10 -183 11 -460 30 -570 40 -30 3 -84 7 -120 10
-36 3 -90 7 -120 10 -30 3 -84 8 -120 10 -35 3 -85 7 -110 10 -71 9 -129 14
-215 21 -44 3 -88 8 -97 9 -9 2 -49 6 -90 10 -40 3 -89 8 -108 10 -54 7 -110
14 -165 20 -27 3 -66 7 -85 10 -19 2 -60 7 -90 10 -30 4 -66 8 -80 10 -14 2
-69 9 -124 15 -54 7 -106 13 -115 15 -9 2 -44 6 -76 10 -33 4 -69 9 -80 11
-11 2 -44 6 -73 10 -29 3 -63 7 -75 10 -12 2 -42 6 -67 9 -76 10 -113 15 -170
25 -30 5 -73 12 -95 15 -23 3 -50 7 -60 9 -11 2 -40 7 -65 10 -25 3 -55 8 -66
10 -25 5 -78 14 -131 22 -21 3 -90 14 -153 26 -63 11 -125 22 -137 23 -12 2
-34 6 -50 9 -15 4 -40 9 -56 11 -27 5 -124 22 -174 31 -16 3 -62 12 -103 21
-41 8 -85 17 -96 19 -12 2 -66 13 -120 25 -55 11 -112 23 -129 26 -16 2 -66
13 -110 23 -44 11 -161 38 -260 61 -99 23 -263 63 -365 90 -102 27 -194 51
-205 53 -46 10 -492 148 -640 199 -428 146 -835 335 -1080 500 -147 99 -213
162 -257 243 -33 62 -95 255 -113 354 -3 14 -10 43 -15 65 -11 45 -36 195 -45
270 -4 28 -8 57 -11 65 -2 8 -6 39 -9 69 -3 30 -8 70 -10 90 -13 106 -23 223
-40 464 -11 149 -14 205 -20 327 -3 69 -8 170 -10 225 -3 55 -7 336 -10 624
l-5 523 65 120 c36 65 65 121 65 123 0 2 14 28 31 57 17 29 53 94 79 143 55
102 145 270 196 363 42 76 90 166 136 252 20 36 50 92 68 125 18 33 93 173
167 310 75 138 150 278 169 313 34 63 77 141 138 255 63 117 217 402 228 422
6 11 24 43 38 70 15 28 56 102 90 165 34 63 87 162 118 220 30 58 58 110 62
115 4 6 24 42 44 80 21 39 52 97 70 130 18 33 53 98 78 145 25 47 68 126 95
175 27 50 71 131 98 180 26 50 73 137 105 195 31 58 81 150 110 205 29 55 56
105 60 110 4 6 30 53 58 105 88 168 121 225 131 223 12 -3 61 -32 400 -242
162 -99 297 -181 302 -181 4 0 9 -3 11 -7 2 -5 15 -15 29 -23 15 -8 286 -175
603 -370 317 -195 589 -362 604 -371 15 -9 135 -83 267 -164 132 -81 245 -148
250 -148 8 0 701 420 855 518 19 12 148 91 285 175 361 220 426 260 465 285
32 21 1301 798 1362 834 82 49 310 189 353 216 51 33 426 262 457 280 10 6 96
58 190 116 95 59 241 147 323 197 83 50 155 95 160 99 11 9 243 151 278 170
31 18 32 17 56 -19z"/>
<path d="M11182 15233 c-109 -193 -224 -400 -387 -698 -49 -90 -107 -200 -155
-295 -24 -47 -48 -92 -55 -100 -30 -39 -35 -96 -30 -360 6 -264 7 -312 20
-510 4 -58 8 -130 8 -160 l2 -55 -45 -1 c-25 -1 -186 -3 -357 -5 -172 -2 -313
-7 -313 -11 0 -4 19 -37 43 -72 23 -36 74 -115 112 -176 39 -61 151 -235 250
-387 l180 -275 75 -29 c72 -28 270 -80 355 -94 22 -4 49 -9 60 -10 11 -2 36
-6 55 -9 19 -3 44 -7 55 -10 11 -2 52 -7 90 -10 39 -4 81 -9 95 -11 159 -23
659 -41 993 -36 l49 1 -6 118 c-7 117 -10 189 -21 507 -3 94 -8 220 -10 280
-3 61 -7 171 -10 245 -7 185 -14 374 -20 505 -2 61 -7 180 -11 265 -11 299 0
253 -95 387 -78 109 -232 339 -341 508 -185 290 -230 361 -263 417 -38 65
-188 308 -191 308 -1 0 -61 -102 -132 -227z"/>
<path d="M15077 15137 c-3 -8 -47 -78 -99 -158 -112 -170 -222 -339 -326 -499
-475 -728 -991 -1498 -1124 -1675 -21 -27 -38 -55 -38 -62 0 -22 94 -94 174
-133 87 -42 240 -89 376 -115 47 -9 94 -18 105 -20 20 -4 52 -8 155 -20 30 -4
66 -8 79 -10 159 -26 949 -26 1101 -1 14 3 61 7 104 11 43 4 87 8 97 10 10 2
49 7 86 10 37 4 77 9 88 11 11 2 63 11 115 19 255 41 582 127 763 200 83 34 6
245 -218 595 -56 88 -246 363 -256 370 -3 3 -15 19 -25 35 -36 58 -453 604
-512 670 -10 11 -33 40 -52 65 -19 25 -37 47 -40 50 -3 3 -32 39 -65 80 -91
115 -476 580 -480 580 -1 0 -5 -6 -8 -13z"/>
<path d="M4336 14171 c-14 -37 -48 -190 -60 -271 -13 -93 -28 -197 -31 -218
-2 -13 -7 -53 -10 -90 -4 -37 -8 -74 -10 -82 -2 -8 -7 -51 -11 -95 -3 -44 -8
-82 -9 -85 -2 -3 -6 -41 -10 -85 -3 -44 -8 -87 -10 -95 -2 -8 -7 -51 -11 -95
-3 -44 -8 -82 -9 -85 -2 -3 -6 -43 -10 -90 -4 -47 -8 -92 -10 -100 -3 -13 -14
-113 -20 -180 -2 -14 -6 -45 -9 -70 -7 -50 -13 -92 -21 -160 -3 -25 -8 -52
-10 -60 -6 -24 -18 -122 -19 -160 -1 -35 -1 -35 59 -48 100 -22 448 -20 565 3
14 3 52 10 85 15 88 16 84 12 74 67 -5 26 -11 58 -14 70 -2 13 -11 58 -19 100
-14 70 -88 461 -100 523 -2 14 -11 57 -19 95 -9 39 -18 84 -21 100 -2 17 -14
77 -26 135 -12 58 -24 116 -26 130 -12 59 -46 228 -54 260 -21 95 -52 227 -55
240 -2 8 -14 51 -25 95 -28 106 -46 157 -76 221 -32 67 -55 71 -78 15z"/>
<path d="M8578 13221 c0 -3 -2 -78 -2 -166 l-1 -160 -121 -3 -121 -3 0 48 c0
26 -1 101 -2 166 l-1 117 -116 -2 c-64 -2 -118 -6 -121 -11 -2 -4 -7 -76 -9
-159 -2 -83 -7 -154 -9 -157 -11 -10 -227 -8 -231 3 -2 6 -5 70 -7 141 l-2
130 -86 3 -85 3 -85 -93 c-46 -50 -99 -108 -116 -127 l-33 -36 0 -380 c-1
-354 -7 -1073 -9 -1086 -1 -3 -18 -7 -38 -8 -21 -1 -54 -4 -73 -6 -139 -16
-333 -20 -882 -18 -346 2 -628 0 -628 -2 0 -3 40 -56 89 -117 49 -62 120 -160
158 -218 202 -306 329 -511 344 -558 16 -47 16 -56 3 -87 -8 -20 -22 -35 -32
-36 -9 0 -26 -2 -36 -4 -37 -7 -103 46 -239 188 -74 78 -165 174 -202 212
-100 104 -194 212 -250 285 -27 36 -52 67 -55 70 -3 3 -21 25 -40 50 -19 25
-39 50 -45 56 -5 7 -36 46 -69 88 -51 66 -76 85 -76 57 0 -5 -57 -125 -126
-267 -70 -143 -175 -359 -235 -482 l-108 -222 -46 22 -45 22 -1 160 c-1 228
-6 586 -14 901 -4 149 -8 307 -9 353 -1 82 -1 82 -26 78 -154 -31 -347 -39
-521 -22 -60 6 -76 5 -76 -6 -1 -7 -4 -262 -7 -567 -3 -305 -7 -555 -9 -557
-3 -3 -94 -11 -217 -19 -177 -11 -258 -17 -300 -20 -25 -2 -92 -6 -150 -10
-58 -4 -125 -8 -150 -10 -25 -2 -97 -6 -160 -10 -63 -4 -131 -8 -150 -10 -19
-2 -87 -7 -150 -10 -63 -4 -131 -9 -150 -10 -19 -2 -47 -4 -61 -4 -28 -1 -15
16 -357 -491 -80 -118 -152 -223 -161 -234 -14 -15 -16 -51 -17 -242 l0 -225
30 -14 c154 -71 628 -226 991 -326 163 -44 306 -83 318 -85 12 -3 27 -6 32 -8
23 -7 188 -44 220 -50 11 -2 79 -18 150 -34 120 -28 254 -57 315 -68 14 -3
104 -20 200 -39 160 -31 245 -46 325 -59 17 -3 73 -12 125 -21 52 -9 106 -18
120 -20 14 -2 66 -11 115 -19 50 -8 113 -18 140 -21 28 -4 57 -8 65 -10 8 -2
40 -7 70 -10 30 -4 96 -13 145 -20 50 -8 113 -17 140 -21 28 -3 57 -7 65 -9 8
-2 47 -6 85 -10 39 -4 77 -9 85 -10 8 -2 44 -6 80 -10 36 -3 76 -8 90 -10 46
-7 104 -14 205 -25 55 -6 116 -13 135 -15 19 -3 60 -7 90 -10 30 -2 76 -7 103
-10 90 -10 142 -15 207 -20 36 -3 76 -8 90 -10 14 -2 61 -7 105 -9 44 -3 103
-8 130 -11 28 -3 82 -7 120 -10 39 -3 93 -7 120 -10 101 -9 266 -22 410 -31
55 -3 120 -8 145 -9 25 -2 97 -6 160 -10 63 -4 136 -8 163 -10 26 -2 113 -7
193 -10 80 -3 177 -8 217 -10 273 -14 806 -33 1182 -41 222 -4 1665 -4 1820 0
66 2 228 7 360 10 132 4 287 9 345 11 58 2 170 7 250 10 80 3 183 8 230 10 47
3 132 7 190 10 58 2 143 7 190 10 47 2 132 7 190 11 58 3 125 7 150 9 43 4
149 11 295 20 68 5 189 15 250 21 17 1 68 5 115 9 47 3 96 8 110 10 14 2 70 7
125 11 55 3 109 8 120 10 11 2 47 6 80 9 33 3 76 7 95 10 19 2 64 7 100 10 57
5 165 17 270 30 19 3 58 7 85 10 28 4 61 8 75 10 29 4 148 18 170 20 23 2 125
16 208 29 15 3 52 8 82 11 30 4 57 8 60 10 3 1 30 6 61 9 31 4 67 9 80 11 23
5 47 9 114 20 17 3 68 12 115 20 47 8 102 17 124 21 46 7 368 72 451 90 11 3
29 7 40 10 158 35 591 157 603 168 2 3 6 93 7 201 l2 196 -316 272 c-174 149
-327 281 -340 292 -13 11 -29 25 -35 30 -6 6 -42 37 -81 70 -38 33 -76 66 -84
74 -13 11 -16 58 -17 260 -4 458 -28 1075 -49 1235 -3 17 -7 65 -10 106 -3 41
-10 100 -15 130 -5 30 -12 78 -15 105 -8 68 -46 248 -54 256 -3 4 -51 -4 -106
-18 -83 -20 -309 -63 -405 -77 -90 -14 -108 -16 -240 -32 -25 -2 -54 -6 -65
-9 -11 -2 -60 -7 -110 -10 -49 -4 -106 -9 -125 -11 -107 -11 -312 -18 -515
-18 -306 1 -462 11 -645 44 -81 15 -90 17 -152 33 -42 11 -58 12 -59 4 -2 -29
3 -575 6 -697 4 -127 6 -278 21 -1095 3 -192 7 -397 8 -455 2 -77 -3 -123 -17
-175 -21 -78 -37 -101 -84 -121 -32 -14 -93 -9 -93 7 0 4 -8 10 -19 14 -25 8
-78 135 -85 205 -3 30 -8 64 -10 75 -2 11 -7 46 -11 79 -3 32 -8 68 -10 80 -2
11 -6 44 -10 71 -3 28 -10 80 -15 118 -6 37 -12 89 -15 115 -3 26 -8 58 -10
72 -9 55 -25 168 -30 225 -3 33 -8 67 -10 75 -2 8 -7 40 -10 70 -20 177 -21
180 -90 245 -34 33 -143 137 -241 231 -99 94 -206 197 -239 228 l-60 56 -85
-5 c-441 -26 -1070 -26 -1400 0 -68 5 -175 15 -215 19 -16 2 -59 7 -95 11 -71
8 -74 8 -140 19 -25 4 -58 10 -75 12 -255 39 -572 144 -653 218 -13 11 -87
119 -165 238 -78 120 -168 258 -199 306 -32 48 -61 94 -65 102 -5 9 -62 100
-128 203 -66 102 -125 194 -130 204 -6 10 -23 38 -39 62 l-28 44 -118 -234
c-65 -129 -149 -295 -186 -369 l-69 -135 -132 -2 -133 -3 -1 203 c0 111 -1
319 -3 462 l-2 260 -122 1 c-67 1 -123 -1 -124 -5z"/>
<path d="M6142 12260 c-19 -5 -38 -12 -43 -17 -16 -16 -22 -117 -20 -353 3
-389 2 -370 31 -371 63 -3 292 1 299 5 8 5 16 444 12 663 -1 40 -5 53 -18 57
-54 17 -213 26 -261 16z"/>
</g>
</svg>
